<svg xmlns="http://www.w3.org/2000/svg" xmlns:xlink="http://www.w3.org/1999/xlink" width="34" height="32" viewBox="0 0 34 32">
  <defs>
    <clipPath id="clip-SOL">
      <rect width="34" height="32"/>
    </clipPath>
  </defs>
  <g id="SOL" clip-path="url(#clip-SOL)">
    <g id="sun" transform="translate(3.083 2.317)">
      <g id="Grupo_37" data-name="Grupo 37" transform="translate(22.329 6.69)">
        <g id="Grupo_36" data-name="Grupo 36">
          <path id="Trazado_32124" data-name="Trazado 32124" d="M326.367,96.688a.5.5,0,0,0-.687-.182l-2.453,1.418a.5.5,0,0,0,.505.868l2.453-1.418A.5.5,0,0,0,326.367,96.688Z" transform="translate(-322.978 -96.438)" fill="#e2a500"/>
        </g>
      </g>
      <g id="Grupo_39" data-name="Grupo 39" transform="translate(22.329 18.574)">
        <g id="Grupo_38" data-name="Grupo 38">
          <path id="Trazado_32125" data-name="Trazado 32125" d="M326.185,269.244l-2.453-1.418a.5.5,0,1,0-.5.868l2.453,1.418a.5.5,0,0,0,.5-.868Z" transform="translate(-322.978 -267.758)" fill="#e2a500"/>
        </g>
      </g>
      <g id="Grupo_41" data-name="Grupo 41" transform="translate(13.263 23.765)">
        <g id="Grupo_40" data-name="Grupo 40">
          <path id="Trazado_32126" data-name="Trazado 32126" d="M192.822,342.6a.505.505,0,0,0-.541.541v2.833a.505.505,0,1,0,1.007,0v-2.833A.505.505,0,0,0,192.822,342.6Z" transform="translate(-192.28 -342.6)" fill="#e2a500"/>
        </g>
      </g>
      <g id="Grupo_43" data-name="Grupo 43" transform="translate(1.747 6.69)">
        <g id="Grupo_42" data-name="Grupo 42">
          <path id="Trazado_32127" data-name="Trazado 32127" d="M29.465,97.924l-2.453-1.418a.5.5,0,1,0-.5.868l2.453,1.418a.5.5,0,1,0,.5-.868Z" transform="translate(-26.258 -96.438)" fill="#e2a500"/>
        </g>
      </g>
      <g id="Grupo_45" data-name="Grupo 45" transform="translate(13.263)">
        <g id="Grupo_44" data-name="Grupo 44">
          <path id="Trazado_32128" data-name="Trazado 32128" d="M192.822,0a.5.5,0,0,0-.541.541V3.375a.5.5,0,0,0,1.007,0V.542A.505.505,0,0,0,192.822,0Z" transform="translate(-192.28 0)" fill="#e2a500"/>
        </g>
      </g>
      <g id="Grupo_47" data-name="Grupo 47" transform="translate(6.615 1.821)">
        <g id="Grupo_46" data-name="Grupo 46">
          <path id="Trazado_32129" data-name="Trazado 32129" d="M98.789,28.96l-1.415-2.453a.5.5,0,1,0-.868.5l1.415,2.453a.5.5,0,1,0,.868-.5Z" transform="translate(-96.438 -26.258)" fill="#e2a500"/>
        </g>
      </g>
      <g id="Grupo_49" data-name="Grupo 49" transform="translate(9.286 9.359)">
        <g id="Grupo_48" data-name="Grupo 48">
          <path id="Trazado_32130" data-name="Trazado 32130" d="M139.5,134.921a.5.5,0,0,0-.075,0,4.481,4.481,0,0,0-4.481,4.481.5.5,0,1,0,1.007,0,3.471,3.471,0,0,1,3.468-3.474h.006a.5.5,0,1,0,.075-1.007Z" transform="translate(-134.94 -134.92)" fill="#e2a500"/>
        </g>
      </g>
      <g id="Grupo_51" data-name="Grupo 51" transform="translate(23.69 13.335)">
        <g id="Grupo_50" data-name="Grupo 50">
          <path id="Trazado_32131" data-name="Trazado 32131" d="M346.441,192.706a.505.505,0,0,0-.466-.466h-2.833a.5.5,0,1,0,0,1.007h2.833A.5.5,0,0,0,346.441,192.706Z" transform="translate(-342.6 -192.239)" fill="#e2a500"/>
        </g>
      </g>
      <g id="Grupo_53" data-name="Grupo 53" transform="translate(0 13.338)">
        <g id="Grupo_52" data-name="Grupo 52">
          <path id="Trazado_32132" data-name="Trazado 32132" d="M4.454,192.281a.5.5,0,0,0-.075,0H1.546a.5.5,0,0,0,0,1.007H4.379a.5.5,0,0,0,.075-1.007Z" transform="translate(-1.079 -192.28)" fill="#e2a500"/>
        </g>
      </g>
      <g id="Grupo_55" data-name="Grupo 55" transform="translate(6.357 6.43)">
        <g id="Grupo_54" data-name="Grupo 54">
          <path id="Trazado_32133" data-name="Trazado 32133" d="M100.126,92.7a7.411,7.411,0,1,0,7.41,7.412A7.411,7.411,0,0,0,100.126,92.7Zm4.526,11.948A6.407,6.407,0,0,1,95.6,95.583v.008a6.4,6.4,0,1,1,9.057,9.057Z" transform="translate(-92.714 -92.7)" fill="#e2a500"/>
        </g>
      </g>
      <g id="Grupo_57" data-name="Grupo 57" transform="translate(18.496 22.404)">
        <g id="Grupo_56" data-name="Grupo 56">
          <path id="Trazado_32134" data-name="Trazado 32134" d="M270.073,325.683v0l-1.418-2.453a.5.5,0,0,0-.868.505l1.418,2.453a.5.5,0,0,0,.87-.5Z" transform="translate(-267.717 -322.978)" fill="#e2a500"/>
        </g>
      </g>
      <g id="Grupo_59" data-name="Grupo 59" transform="translate(18.512 1.821)">
        <g id="Grupo_58" data-name="Grupo 58">
          <path id="Trazado_32135" data-name="Trazado 32135" d="M270.117,26.326a.5.5,0,0,0-.687.182l-1.418,2.453a.5.5,0,0,0,.179.687h0a.5.5,0,0,0,.687-.181v0l1.418-2.453A.5.5,0,0,0,270.117,26.326Z" transform="translate(-267.943 -26.258)" fill="#e2a500"/>
        </g>
      </g>
      <g id="Grupo_61" data-name="Grupo 61" transform="translate(6.615 22.404)">
        <g id="Grupo_60" data-name="Grupo 60">
          <path id="Trazado_32136" data-name="Trazado 32136" d="M98.61,323.046a.5.5,0,0,0-.687.182l-1.418,2.453a.5.5,0,0,0,.868.5l1.418-2.453A.5.5,0,0,0,98.61,323.046Z" transform="translate(-96.438 -322.978)" fill="#e2a500"/>
        </g>
      </g>
      <g id="Grupo_63" data-name="Grupo 63" transform="translate(1.747 18.571)">
        <g id="Grupo_62" data-name="Grupo 62">
          <path id="Trazado_32137" data-name="Trazado 32137" d="M29.647,267.968a.5.5,0,0,0-.687-.182L26.508,269.2a.5.5,0,1,0,.5.868l2.453-1.418A.5.5,0,0,0,29.647,267.968Z" transform="translate(-26.258 -267.718)" fill="#e2a500"/>
        </g>
      </g>
    </g>
  </g>
</svg>
