<svg xmlns="http://www.w3.org/2000/svg" xmlns:xlink="http://www.w3.org/1999/xlink" width="47" height="48" viewBox="0 0 47 48">
  <defs>
    <clipPath id="clip-FACEBOOK-OVER">
      <rect width="47" height="48"/>
    </clipPath>
  </defs>
  <g id="FACEBOOK-OVER" clip-path="url(#clip-FACEBOOK-OVER)">
    <g id="Componente_9_2" data-name="Componente 9 – 2" transform="translate(3.152 3.425)">
      <g id="Trazado_32192" data-name="Trazado 32192" fill="#a5d5bb">
        <path d="M 20.6480770111084 40.79615783691406 C 17.92788696289062 40.79615783691406 15.28932666778564 40.26351547241211 12.80568695068359 39.21302795410156 C 10.40652656555176 38.19826889038086 8.25175666809082 36.74544525146484 6.401237010955811 34.89491653442383 C 4.55070686340332 33.04439544677734 3.09788703918457 30.88962745666504 2.083127021789551 28.4904670715332 C 1.032637000083923 26.00682640075684 0.4999970197677612 23.36826705932617 0.4999970197677612 20.6480770111084 C 0.4999970197677612 17.92788696289062 1.032637000083923 15.28932666778564 2.083127021789551 12.80568695068359 C 3.09788703918457 10.40652656555176 4.55070686340332 8.25175666809082 6.401237010955811 6.401237010955811 C 8.25175666809082 4.55070686340332 10.40652656555176 3.09788703918457 12.80568695068359 2.083127021789551 C 15.28932666778564 1.032637000083923 17.92788696289062 0.4999970197677612 20.6480770111084 0.4999970197677612 C 23.36826705932617 0.4999970197677612 26.00682640075684 1.032637000083923 28.4904670715332 2.083127021789551 C 30.88962745666504 3.09788703918457 33.04439544677734 4.55070686340332 34.89491653442383 6.401237010955811 C 36.74544525146484 8.25175666809082 38.19826889038086 10.40652656555176 39.21302795410156 12.80568695068359 C 40.26351547241211 15.28932666778564 40.79615783691406 17.92788696289062 40.79615783691406 20.6480770111084 C 40.79615783691406 23.36826705932617 40.26351547241211 26.00682640075684 39.21302795410156 28.4904670715332 C 38.19826889038086 30.88962745666504 36.74544525146484 33.04439544677734 34.89491653442383 34.89491653442383 C 33.04439544677734 36.74544525146484 30.88962745666504 38.19826889038086 28.4904670715332 39.21302795410156 C 26.00682640075684 40.26351547241211 23.36826705932617 40.79615783691406 20.6480770111084 40.79615783691406 Z" stroke="none"/>
        <path d="M 20.6480770111084 0.9999961853027344 C 17.99516677856445 0.9999961853027344 15.4221363067627 1.51934814453125 13.00046730041504 2.543628692626953 C 10.66090774536133 3.533176422119141 8.559558868408203 4.950016021728516 6.754787445068359 6.754787445068359 C 4.950016021728516 8.559558868408203 3.533176422119141 10.66090774536133 2.543628692626953 13.00046730041504 C 1.51934814453125 15.4221363067627 0.9999961853027344 17.99516677856445 0.9999961853027344 20.6480770111084 C 0.9999961853027344 23.30098724365234 1.51934814453125 25.87401580810547 2.543628692626953 28.29568672180176 C 3.533176422119141 30.63524627685547 4.950016021728516 32.73659515380859 6.754787445068359 34.54136657714844 C 8.559558868408203 36.34613800048828 10.66090774536133 37.76297760009766 13.00046730041504 38.75252532958984 C 15.4221363067627 39.77680587768555 17.99516677856445 40.29615783691406 20.6480770111084 40.29615783691406 C 23.30098724365234 40.29615783691406 25.87401580810547 39.77680587768555 28.29568672180176 38.75252532958984 C 30.63524627685547 37.76297760009766 32.73659515380859 36.34613800048828 34.54136657714844 34.54136657714844 C 36.34613800048828 32.73659515380859 37.76297760009766 30.63524627685547 38.75252532958984 28.29568672180176 C 39.77680587768555 25.87401580810547 40.29615783691406 23.30098724365234 40.29615783691406 20.6480770111084 C 40.29615783691406 17.99516677856445 39.77680587768555 15.4221363067627 38.75252532958984 13.00046730041504 C 37.76297760009766 10.66090774536133 36.34613800048828 8.559558868408203 34.54136657714844 6.754787445068359 C 32.73659515380859 4.950016021728516 30.63524627685547 3.533176422119141 28.29568672180176 2.543628692626953 C 25.87401580810547 1.51934814453125 23.30098724365234 0.9999961853027344 20.6480770111084 0.9999961853027344 M 20.6480770111084 -3.814697265625e-06 C 32.05169677734375 -3.814697265625e-06 41.29615783691406 9.244457244873047 41.29615783691406 20.6480770111084 C 41.29615783691406 32.05169677734375 32.05169677734375 41.29615783691406 20.6480770111084 41.29615783691406 C 9.244457244873047 41.29615783691406 -3.814697265625e-06 32.05169677734375 -3.814697265625e-06 20.6480770111084 C -3.814697265625e-06 9.244457244873047 9.244457244873047 -3.814697265625e-06 20.6480770111084 -3.814697265625e-06 Z" stroke="none" fill="#a5d5bb"/>
      </g>
      <path id="Trazado_32189" data-name="Trazado 32189" d="M87.8,23.013V12.529h3.58l.511-4.091H87.8V5.881c0-1.151.384-2.046,2.046-2.046h2.173V.128c-.511,0-1.79-.128-3.2-.128C85.753,0,83.58,1.918,83.58,5.37V8.438H80v4.091h3.58V23.013Z" transform="translate(-65.52 9.208)" fill="#fff" fill-rule="evenodd"/>
    </g>
  </g>
</svg>
