<svg xmlns="http://www.w3.org/2000/svg" xmlns:xlink="http://www.w3.org/1999/xlink" width="52" height="51" viewBox="0 0 52 51">
  <defs>
    <clipPath id="clip-INSTAGRAM_OVER">
      <rect width="52" height="51"/>
    </clipPath>
  </defs>
  <g id="INSTAGRAM_OVER" data-name="INSTAGRAM—OVER" clip-path="url(#clip-INSTAGRAM_OVER)">
    <g id="Grupo_125" data-name="Grupo 125">
      <g id="Trazado_32199" data-name="Trazado 32199" transform="translate(5.704 4.704)" fill="#a5d5bb">
        <path d="M 20.6480770111084 40.79615783691406 C 17.92788696289062 40.79615783691406 15.28932666778564 40.26351547241211 12.80568695068359 39.21302795410156 C 10.40652656555176 38.19826889038086 8.25175666809082 36.74544525146484 6.401237010955811 34.89491653442383 C 4.55070686340332 33.04439544677734 3.09788703918457 30.88962745666504 2.083127021789551 28.4904670715332 C 1.032637000083923 26.00682640075684 0.4999970197677612 23.36826705932617 0.4999970197677612 20.6480770111084 C 0.4999970197677612 17.92788696289062 1.032637000083923 15.28932666778564 2.083127021789551 12.80568695068359 C 3.09788703918457 10.40652656555176 4.55070686340332 8.25175666809082 6.401237010955811 6.401237010955811 C 8.25175666809082 4.55070686340332 10.40652656555176 3.09788703918457 12.80568695068359 2.083127021789551 C 15.28932666778564 1.032637000083923 17.92788696289062 0.4999970197677612 20.6480770111084 0.4999970197677612 C 23.36826705932617 0.4999970197677612 26.00682640075684 1.032637000083923 28.4904670715332 2.083127021789551 C 30.88962745666504 3.09788703918457 33.04439544677734 4.55070686340332 34.89491653442383 6.401237010955811 C 36.74544525146484 8.25175666809082 38.19826889038086 10.40652656555176 39.21302795410156 12.80568695068359 C 40.26351547241211 15.28932666778564 40.79615783691406 17.92788696289062 40.79615783691406 20.6480770111084 C 40.79615783691406 23.36826705932617 40.26351547241211 26.00682640075684 39.21302795410156 28.4904670715332 C 38.19826889038086 30.88962745666504 36.74544525146484 33.04439544677734 34.89491653442383 34.89491653442383 C 33.04439544677734 36.74544525146484 30.88962745666504 38.19826889038086 28.4904670715332 39.21302795410156 C 26.00682640075684 40.26351547241211 23.36826705932617 40.79615783691406 20.6480770111084 40.79615783691406 Z" stroke="none"/>
        <path d="M 20.6480770111084 0.9999961853027344 C 17.99516677856445 0.9999961853027344 15.4221363067627 1.51934814453125 13.00046730041504 2.543628692626953 C 10.66090774536133 3.533176422119141 8.559558868408203 4.950016021728516 6.754787445068359 6.754787445068359 C 4.950016021728516 8.559558868408203 3.533176422119141 10.66090774536133 2.543628692626953 13.00046730041504 C 1.51934814453125 15.4221363067627 0.9999961853027344 17.99516677856445 0.9999961853027344 20.6480770111084 C 0.9999961853027344 23.30098724365234 1.51934814453125 25.87401580810547 2.543628692626953 28.29568672180176 C 3.533176422119141 30.63524627685547 4.950016021728516 32.73659515380859 6.754787445068359 34.54136657714844 C 8.559558868408203 36.34613800048828 10.66090774536133 37.76297760009766 13.00046730041504 38.75252532958984 C 15.4221363067627 39.77680587768555 17.99516677856445 40.29615783691406 20.6480770111084 40.29615783691406 C 23.30098724365234 40.29615783691406 25.87401580810547 39.77680587768555 28.29568672180176 38.75252532958984 C 30.63524627685547 37.76297760009766 32.73659515380859 36.34613800048828 34.54136657714844 34.54136657714844 C 36.34613800048828 32.73659515380859 37.76297760009766 30.63524627685547 38.75252532958984 28.29568672180176 C 39.77680587768555 25.87401580810547 40.29615783691406 23.30098724365234 40.29615783691406 20.6480770111084 C 40.29615783691406 17.99516677856445 39.77680587768555 15.4221363067627 38.75252532958984 13.00046730041504 C 37.76297760009766 10.66090774536133 36.34613800048828 8.559558868408203 34.54136657714844 6.754787445068359 C 32.73659515380859 4.950016021728516 30.63524627685547 3.533176422119141 28.29568672180176 2.543628692626953 C 25.87401580810547 1.51934814453125 23.30098724365234 0.9999961853027344 20.6480770111084 0.9999961853027344 M 20.6480770111084 -3.814697265625e-06 C 32.05169677734375 -3.814697265625e-06 41.29615783691406 9.244457244873047 41.29615783691406 20.6480770111084 C 41.29615783691406 32.05169677734375 32.05169677734375 41.29615783691406 20.6480770111084 41.29615783691406 C 9.244457244873047 41.29615783691406 -3.814697265625e-06 32.05169677734375 -3.814697265625e-06 20.6480770111084 C -3.814697265625e-06 9.244457244873047 9.244457244873047 -3.814697265625e-06 20.6480770111084 -3.814697265625e-06 Z" stroke="none" fill="#a5d5bb"/>
      </g>
      <path id="Trazado_32194" data-name="Trazado 32194" d="M9.494,1.688a29.11,29.11,0,0,1,3.8.105,4.893,4.893,0,0,1,1.793.316A3.7,3.7,0,0,1,16.878,3.9,4.893,4.893,0,0,1,17.194,5.7c0,.949.105,1.266.105,3.8a29.11,29.11,0,0,1-.105,3.8,4.893,4.893,0,0,1-.316,1.793,3.7,3.7,0,0,1-1.793,1.793,4.893,4.893,0,0,1-1.793.316c-.949,0-1.266.105-3.8.105a29.11,29.11,0,0,1-3.8-.105A4.893,4.893,0,0,1,3.9,16.878,3.7,3.7,0,0,1,2.11,15.085a4.893,4.893,0,0,1-.316-1.793c0-.949-.105-1.266-.105-3.8a29.11,29.11,0,0,1,.105-3.8A4.893,4.893,0,0,1,2.11,3.9a3.789,3.789,0,0,1,.738-1.055A1.783,1.783,0,0,1,3.9,2.11,4.893,4.893,0,0,1,5.7,1.793a29.11,29.11,0,0,1,3.8-.105M9.494,0a31.169,31.169,0,0,0-3.9.105A6.512,6.512,0,0,0,3.27.527,4.13,4.13,0,0,0,1.582,1.582,4.13,4.13,0,0,0,.527,3.27,4.806,4.806,0,0,0,.105,5.591,31.169,31.169,0,0,0,0,9.494a31.169,31.169,0,0,0,.105,3.9,6.512,6.512,0,0,0,.422,2.321,4.13,4.13,0,0,0,1.055,1.688A4.13,4.13,0,0,0,3.27,18.46a6.512,6.512,0,0,0,2.321.422,31.167,31.167,0,0,0,3.9.105,31.167,31.167,0,0,0,3.9-.105,6.512,6.512,0,0,0,2.321-.422,4.426,4.426,0,0,0,2.743-2.743,6.512,6.512,0,0,0,.422-2.321c0-1.055.105-1.371.105-3.9a31.167,31.167,0,0,0-.105-3.9A6.512,6.512,0,0,0,18.46,3.27a4.13,4.13,0,0,0-1.055-1.688A4.13,4.13,0,0,0,15.718.527,6.512,6.512,0,0,0,13.4.105,31.169,31.169,0,0,0,9.494,0m0,4.641A4.774,4.774,0,0,0,4.641,9.494,4.852,4.852,0,1,0,9.494,4.641m0,8.017A3.108,3.108,0,0,1,6.329,9.494,3.108,3.108,0,0,1,9.494,6.329a3.108,3.108,0,0,1,3.165,3.165,3.108,3.108,0,0,1-3.165,3.165M14.557,3.27a1.16,1.16,0,1,0,1.16,1.16,1.171,1.171,0,0,0-1.16-1.16" transform="translate(16.865 15.307)" fill="#fff" fill-rule="evenodd"/>
    </g>
  </g>
</svg>
