<svg xmlns="http://www.w3.org/2000/svg" xmlns:xlink="http://www.w3.org/1999/xlink" width="24" height="28" viewBox="0 0 24 28">
  <defs>
    <clipPath id="clip-INSTAGRAM">
      <rect width="24" height="28"/>
    </clipPath>
  </defs>
  <g id="INSTAGRAM" clip-path="url(#clip-INSTAGRAM)">
    <g id="Componente_4_2" data-name="Componente 4 – 2" transform="translate(2.711 5.427)">
      <path id="Trazado_12" data-name="Trazado 12" d="M8.66,1.54a26.553,26.553,0,0,1,3.464.1,4.463,4.463,0,0,1,1.636.289A3.379,3.379,0,0,1,15.4,3.56,4.463,4.463,0,0,1,15.684,5.2c0,.866.1,1.155.1,3.464a26.553,26.553,0,0,1-.1,3.464A4.463,4.463,0,0,1,15.4,13.76,3.379,3.379,0,0,1,13.76,15.4a4.463,4.463,0,0,1-1.636.289c-.866,0-1.155.1-3.464.1a26.553,26.553,0,0,1-3.464-.1A4.463,4.463,0,0,1,3.56,15.4,3.379,3.379,0,0,1,1.924,13.76a4.463,4.463,0,0,1-.289-1.636c0-.866-.1-1.155-.1-3.464a26.553,26.553,0,0,1,.1-3.464A4.463,4.463,0,0,1,1.924,3.56,3.456,3.456,0,0,1,2.6,2.6a1.627,1.627,0,0,1,.962-.674A4.463,4.463,0,0,1,5.2,1.636a26.553,26.553,0,0,1,3.464-.1M8.66,0A28.431,28.431,0,0,0,5.1.1,5.94,5.94,0,0,0,2.983.481a3.767,3.767,0,0,0-1.54.962,3.767,3.767,0,0,0-.962,1.54A4.384,4.384,0,0,0,.1,5.1,28.431,28.431,0,0,0,0,8.66a28.431,28.431,0,0,0,.1,3.56,5.94,5.94,0,0,0,.385,2.117,3.767,3.767,0,0,0,.962,1.54,3.767,3.767,0,0,0,1.54.962,5.94,5.94,0,0,0,2.117.385,28.429,28.429,0,0,0,3.56.1,28.429,28.429,0,0,0,3.56-.1,5.94,5.94,0,0,0,2.117-.385,4.037,4.037,0,0,0,2.5-2.5,5.94,5.94,0,0,0,.385-2.117c0-.962.1-1.251.1-3.56a28.429,28.429,0,0,0-.1-3.56,5.94,5.94,0,0,0-.385-2.117,3.767,3.767,0,0,0-.962-1.54,3.767,3.767,0,0,0-1.54-.962A5.94,5.94,0,0,0,12.22.1,28.431,28.431,0,0,0,8.66,0m0,4.234A4.355,4.355,0,0,0,4.234,8.66,4.426,4.426,0,1,0,8.66,4.234m0,7.313A2.835,2.835,0,0,1,5.773,8.66,2.835,2.835,0,0,1,8.66,5.773,2.835,2.835,0,0,1,11.547,8.66,2.835,2.835,0,0,1,8.66,11.547m4.619-8.564a1.058,1.058,0,1,0,1.058,1.058,1.068,1.068,0,0,0-1.058-1.058" fill-rule="evenodd"/>
    </g>
  </g>
</svg>
