<svg xmlns="http://www.w3.org/2000/svg" xmlns:xlink="http://www.w3.org/1999/xlink" width="52" height="51" viewBox="0 0 52 51">
  <defs>
    <clipPath id="clip-TIKITOK_OVER">
      <rect width="52" height="51"/>
    </clipPath>
  </defs>
  <g id="TIKITOK_OVER" data-name="TIKITOK—OVER" clip-path="url(#clip-TIKITOK_OVER)">
    <g id="Grupo_124" data-name="Grupo 124" transform="translate(-3)">
      <g id="Trazado_32198" data-name="Trazado 32198" transform="translate(8.782 4.425)" fill="#a5d5bb">
        <path d="M 20.6480770111084 40.79615783691406 C 17.92788696289062 40.79615783691406 15.28932666778564 40.26351547241211 12.80568695068359 39.21302795410156 C 10.40652656555176 38.19826889038086 8.25175666809082 36.74544525146484 6.401237010955811 34.89491653442383 C 4.55070686340332 33.04439544677734 3.09788703918457 30.88962745666504 2.083127021789551 28.4904670715332 C 1.032637000083923 26.00682640075684 0.4999970197677612 23.36826705932617 0.4999970197677612 20.6480770111084 C 0.4999970197677612 17.92788696289062 1.032637000083923 15.28932666778564 2.083127021789551 12.80568695068359 C 3.09788703918457 10.40652656555176 4.55070686340332 8.25175666809082 6.401237010955811 6.401237010955811 C 8.25175666809082 4.55070686340332 10.40652656555176 3.09788703918457 12.80568695068359 2.083127021789551 C 15.28932666778564 1.032637000083923 17.92788696289062 0.4999970197677612 20.6480770111084 0.4999970197677612 C 23.36826705932617 0.4999970197677612 26.00682640075684 1.032637000083923 28.4904670715332 2.083127021789551 C 30.88962745666504 3.09788703918457 33.04439544677734 4.55070686340332 34.89491653442383 6.401237010955811 C 36.74544525146484 8.25175666809082 38.19826889038086 10.40652656555176 39.21302795410156 12.80568695068359 C 40.26351547241211 15.28932666778564 40.79615783691406 17.92788696289062 40.79615783691406 20.6480770111084 C 40.79615783691406 23.36826705932617 40.26351547241211 26.00682640075684 39.21302795410156 28.4904670715332 C 38.19826889038086 30.88962745666504 36.74544525146484 33.04439544677734 34.89491653442383 34.89491653442383 C 33.04439544677734 36.74544525146484 30.88962745666504 38.19826889038086 28.4904670715332 39.21302795410156 C 26.00682640075684 40.26351547241211 23.36826705932617 40.79615783691406 20.6480770111084 40.79615783691406 Z" stroke="none"/>
        <path d="M 20.6480770111084 0.9999961853027344 C 17.99516677856445 0.9999961853027344 15.4221363067627 1.51934814453125 13.00046730041504 2.543628692626953 C 10.66090774536133 3.533176422119141 8.559558868408203 4.950016021728516 6.754787445068359 6.754787445068359 C 4.950016021728516 8.559558868408203 3.533176422119141 10.66090774536133 2.543628692626953 13.00046730041504 C 1.51934814453125 15.4221363067627 0.9999961853027344 17.99516677856445 0.9999961853027344 20.6480770111084 C 0.9999961853027344 23.30098724365234 1.51934814453125 25.87401580810547 2.543628692626953 28.29568672180176 C 3.533176422119141 30.63524627685547 4.950016021728516 32.73659515380859 6.754787445068359 34.54136657714844 C 8.559558868408203 36.34613800048828 10.66090774536133 37.76297760009766 13.00046730041504 38.75252532958984 C 15.4221363067627 39.77680587768555 17.99516677856445 40.29615783691406 20.6480770111084 40.29615783691406 C 23.30098724365234 40.29615783691406 25.87401580810547 39.77680587768555 28.29568672180176 38.75252532958984 C 30.63524627685547 37.76297760009766 32.73659515380859 36.34613800048828 34.54136657714844 34.54136657714844 C 36.34613800048828 32.73659515380859 37.76297760009766 30.63524627685547 38.75252532958984 28.29568672180176 C 39.77680587768555 25.87401580810547 40.29615783691406 23.30098724365234 40.29615783691406 20.6480770111084 C 40.29615783691406 17.99516677856445 39.77680587768555 15.4221363067627 38.75252532958984 13.00046730041504 C 37.76297760009766 10.66090774536133 36.34613800048828 8.559558868408203 34.54136657714844 6.754787445068359 C 32.73659515380859 4.950016021728516 30.63524627685547 3.533176422119141 28.29568672180176 2.543628692626953 C 25.87401580810547 1.51934814453125 23.30098724365234 0.9999961853027344 20.6480770111084 0.9999961853027344 M 20.6480770111084 -3.814697265625e-06 C 32.05169677734375 -3.814697265625e-06 41.29615783691406 9.244457244873047 41.29615783691406 20.6480770111084 C 41.29615783691406 32.05169677734375 32.05169677734375 41.29615783691406 20.6480770111084 41.29615783691406 C 9.244457244873047 41.29615783691406 -3.814697265625e-06 32.05169677734375 -3.814697265625e-06 20.6480770111084 C -3.814697265625e-06 9.244457244873047 9.244457244873047 -3.814697265625e-06 20.6480770111084 -3.814697265625e-06 Z" stroke="none" fill="#a5d5bb"/>
      </g>
      <g id="Grupo_122" data-name="Grupo 122" transform="translate(20.191 14.749)">
        <g id="页面-1">
          <g id="logo">
            <path id="路径" d="M22.34,217.716v-.8a7.093,7.093,0,0,0-.9-.061,6.453,6.453,0,0,0-6.648,6.222,6.113,6.113,0,0,0,2.838,5.094,5.987,5.987,0,0,1-1.785-4.236,6.44,6.44,0,0,1,6.491-6.218" transform="translate(-14.796 -209.311)" fill="#fff"/>
            <path id="形状" d="M48.31,190.441a2.87,2.87,0,0,0,2.871-2.752l.005-13.628h2.505a4.707,4.707,0,0,1-.081-.863H50.189l-.006,13.628a2.874,2.874,0,0,1-4.205,2.423,2.878,2.878,0,0,0,2.332,1.191m10.061-11.754v-.757a4.751,4.751,0,0,1-2.592-.766,4.768,4.768,0,0,0,2.593,1.523" transform="translate(-40.59 -173.199)" fill="#fff"/>
            <path id="Trazado_32117" data-name="Trazado 32117" d="M47.939,182.517a4.65,4.65,0,0,1-1.168-3.081h-.915a4.707,4.707,0,0,0,2.083,3.081m-8.446,6.653a2.833,2.833,0,0,0-1.332,5.353,2.8,2.8,0,0,1-.543-1.656,2.859,2.859,0,0,1,3.716-2.709V186.71a6.333,6.333,0,0,0-.847-.061c-.05,0-.1,0-.148,0V189.3a2.848,2.848,0,0,0-.847-.131" transform="translate(-32.852 -178.358)" fill="#fff"/>
            <path id="Trazado_32118" data-name="Trazado 32118" d="M45.018,207.5v2.631a8.163,8.163,0,0,1-4.749-1.515v6.88a6.287,6.287,0,0,1-9.882,5.1,6.289,6.289,0,0,0,10.877-4.242v-6.88a8.163,8.163,0,0,0,4.749,1.515V207.6a4.782,4.782,0,0,1-1-.1" transform="translate(-27.693 -201.573)" fill="#fff" opacity="0.274"/>
            <path id="Trazado_32119" data-name="Trazado 32119" d="M32.875,192.055v-6.89a8.482,8.482,0,0,0,4.861,1.517v-2.635a4.893,4.893,0,0,1-2.647-1.519,4.722,4.722,0,0,1-2.131-3.092H30.4l-.005,13.586a2.9,2.9,0,0,1-2.931,2.743,2.961,2.961,0,0,1-2.381-1.188,2.842,2.842,0,0,1-1.574-2.523,2.9,2.9,0,0,1,2.937-2.85,2.953,2.953,0,0,1,.867.132v-2.658a6.339,6.339,0,0,0-6.279,6.237,6.118,6.118,0,0,0,1.727,4.249,6.527,6.527,0,0,0,3.685,1.131,6.344,6.344,0,0,0,6.43-6.24" transform="translate(-19.954 -178.358)" fill="#fff"/>
          </g>
        </g>
      </g>
    </g>
  </g>
</svg>
