<svg xmlns="http://www.w3.org/2000/svg" xmlns:xlink="http://www.w3.org/1999/xlink" width="26" height="28" viewBox="0 0 26 28">
  <defs>
    <clipPath id="clip-TIKTOK">
      <rect width="26" height="28"/>
    </clipPath>
  </defs>
  <g id="TIKTOK" clip-path="url(#clip-TIKTOK)">
    <g id="Componente_2_2" data-name="Componente 2 – 2" transform="translate(4.084 4.214)">
      <g id="页面-1">
        <g id="logo">
          <path id="路径" d="M22.655,217.752v-.834a7.4,7.4,0,0,0-.933-.064,6.722,6.722,0,0,0-6.925,6.482,6.368,6.368,0,0,0,2.957,5.306,6.237,6.237,0,0,1-1.86-4.413,6.709,6.709,0,0,1,6.762-6.478" transform="translate(-14.796 -208.996)"/>
          <path id="形状" d="M48.407,191.162A2.99,2.99,0,0,0,51.4,188.3l.005-14.2h2.61a4.9,4.9,0,0,1-.084-.9H50.365l-.006,14.2a2.994,2.994,0,0,1-4.381,2.524,3,3,0,0,0,2.429,1.241m10.481-12.245v-.789a4.949,4.949,0,0,1-2.7-.8,4.967,4.967,0,0,0,2.7,1.587" transform="translate(-40.365 -173.199)"/>
          <path id="Trazado_32117" data-name="Trazado 32117" d="M48.412,182.645a4.844,4.844,0,0,1-1.217-3.209h-.953a4.9,4.9,0,0,0,2.17,3.209m-8.8,6.931a2.952,2.952,0,0,0-1.387,5.577,2.918,2.918,0,0,1-.566-1.725,2.979,2.979,0,0,1,3.871-2.822v-3.593a6.6,6.6,0,0,0-.882-.064c-.052,0-.1,0-.154,0v2.759a2.967,2.967,0,0,0-.882-.137" transform="translate(-32.695 -178.313)"/>
          <path id="Trazado_32118" data-name="Trazado 32118" d="M45.629,207.5v2.741a8.5,8.5,0,0,1-4.947-1.578v7.167a6.549,6.549,0,0,1-10.3,5.315,6.551,6.551,0,0,0,11.332-4.419v-7.167a8.5,8.5,0,0,0,4.947,1.578v-3.528a4.981,4.981,0,0,1-1.037-.109" transform="translate(-27.58 -201.325)" opacity="0.274"/>
          <path id="Trazado_32119" data-name="Trazado 32119" d="M33.369,192.582V185.4a8.836,8.836,0,0,0,5.064,1.58V184.24a5.1,5.1,0,0,1-2.757-1.583,4.919,4.919,0,0,1-2.22-3.221H30.791l-.006,14.154a3.021,3.021,0,0,1-3.054,2.857,3.085,3.085,0,0,1-2.48-1.237,2.961,2.961,0,0,1-1.64-2.628,3.019,3.019,0,0,1,3.06-2.969,3.077,3.077,0,0,1,.9.138v-2.77a6.6,6.6,0,0,0-6.541,6.5,6.373,6.373,0,0,0,1.8,4.426,6.8,6.8,0,0,0,3.839,1.178,6.609,6.609,0,0,0,6.7-6.5" transform="translate(-19.909 -178.313)"/>
        </g>
      </g>
    </g>
  </g>
</svg>
