<svg xmlns="http://www.w3.org/2000/svg" xmlns:xlink="http://www.w3.org/1999/xlink" width="26" height="24" viewBox="0 0 26 24">
  <defs>
    <clipPath id="clip-TWITTER">
      <rect width="26" height="24"/>
    </clipPath>
  </defs>
  <g id="TWITTER" clip-path="url(#clip-TWITTER)">
    <g id="Componente_3_2" data-name="Componente 3 – 2" transform="translate(4.758 4.641)">
      <path id="Trazado_13" data-name="Trazado 13" d="M44.106,17.64A11.148,11.148,0,0,0,55.354,6.392V5.856a8.708,8.708,0,0,0,1.928-2.035,8.893,8.893,0,0,1-2.25.643,4.168,4.168,0,0,0,1.714-2.142,9.825,9.825,0,0,1-2.464.964A3.826,3.826,0,0,0,51.39,2a4.025,4.025,0,0,0-3.964,3.964,2.088,2.088,0,0,0,.107.857,11.075,11.075,0,0,1-8.141-4.178,4.1,4.1,0,0,0-.536,2.035A4.256,4.256,0,0,0,40.571,8a3.611,3.611,0,0,1-1.821-.536h0a3.915,3.915,0,0,0,3.214,3.856,3.3,3.3,0,0,1-1.071.107,1.823,1.823,0,0,1-.75-.107A4.058,4.058,0,0,0,43.892,14.1a8.088,8.088,0,0,1-4.928,1.714A2.966,2.966,0,0,1,38,15.712a10.111,10.111,0,0,0,6.106,1.928" transform="translate(-38 -2)" fill-rule="evenodd"/>
    </g>
  </g>
</svg>
