<svg xmlns="http://www.w3.org/2000/svg" xmlns:xlink="http://www.w3.org/1999/xlink" width="46" height="51" viewBox="0 0 46 51">
  <defs>
    <clipPath id="clip-TWITTER-OVER">
      <rect width="46" height="51"/>
    </clipPath>
  </defs>
  <g id="TWITTER-OVER" clip-path="url(#clip-TWITTER-OVER)">
    <g id="Grupo_123" data-name="Grupo 123" transform="translate(3)">
      <g id="Trazado_32197" data-name="Trazado 32197" transform="translate(-0.207 4.425)" fill="#a5d5bb">
        <path d="M 20.6480770111084 40.79615783691406 C 17.92788696289062 40.79615783691406 15.28932666778564 40.26351547241211 12.80568695068359 39.21302795410156 C 10.40652656555176 38.19826889038086 8.25175666809082 36.74544525146484 6.401237010955811 34.89491653442383 C 4.55070686340332 33.04439544677734 3.09788703918457 30.88962745666504 2.083127021789551 28.4904670715332 C 1.032637000083923 26.00682640075684 0.4999970197677612 23.36826705932617 0.4999970197677612 20.6480770111084 C 0.4999970197677612 17.92788696289062 1.032637000083923 15.28932666778564 2.083127021789551 12.80568695068359 C 3.09788703918457 10.40652656555176 4.55070686340332 8.25175666809082 6.401237010955811 6.401237010955811 C 8.25175666809082 4.55070686340332 10.40652656555176 3.09788703918457 12.80568695068359 2.083127021789551 C 15.28932666778564 1.032637000083923 17.92788696289062 0.4999970197677612 20.6480770111084 0.4999970197677612 C 23.36826705932617 0.4999970197677612 26.00682640075684 1.032637000083923 28.4904670715332 2.083127021789551 C 30.88962745666504 3.09788703918457 33.04439544677734 4.55070686340332 34.89491653442383 6.401237010955811 C 36.74544525146484 8.25175666809082 38.19826889038086 10.40652656555176 39.21302795410156 12.80568695068359 C 40.26351547241211 15.28932666778564 40.79615783691406 17.92788696289062 40.79615783691406 20.6480770111084 C 40.79615783691406 23.36826705932617 40.26351547241211 26.00682640075684 39.21302795410156 28.4904670715332 C 38.19826889038086 30.88962745666504 36.74544525146484 33.04439544677734 34.89491653442383 34.89491653442383 C 33.04439544677734 36.74544525146484 30.88962745666504 38.19826889038086 28.4904670715332 39.21302795410156 C 26.00682640075684 40.26351547241211 23.36826705932617 40.79615783691406 20.6480770111084 40.79615783691406 Z" stroke="none"/>
        <path d="M 20.6480770111084 0.9999961853027344 C 17.99516677856445 0.9999961853027344 15.4221363067627 1.51934814453125 13.00046730041504 2.543628692626953 C 10.66090774536133 3.533176422119141 8.559558868408203 4.950016021728516 6.754787445068359 6.754787445068359 C 4.950016021728516 8.559558868408203 3.533176422119141 10.66090774536133 2.543628692626953 13.00046730041504 C 1.51934814453125 15.4221363067627 0.9999961853027344 17.99516677856445 0.9999961853027344 20.6480770111084 C 0.9999961853027344 23.30098724365234 1.51934814453125 25.87401580810547 2.543628692626953 28.29568672180176 C 3.533176422119141 30.63524627685547 4.950016021728516 32.73659515380859 6.754787445068359 34.54136657714844 C 8.559558868408203 36.34613800048828 10.66090774536133 37.76297760009766 13.00046730041504 38.75252532958984 C 15.4221363067627 39.77680587768555 17.99516677856445 40.29615783691406 20.6480770111084 40.29615783691406 C 23.30098724365234 40.29615783691406 25.87401580810547 39.77680587768555 28.29568672180176 38.75252532958984 C 30.63524627685547 37.76297760009766 32.73659515380859 36.34613800048828 34.54136657714844 34.54136657714844 C 36.34613800048828 32.73659515380859 37.76297760009766 30.63524627685547 38.75252532958984 28.29568672180176 C 39.77680587768555 25.87401580810547 40.29615783691406 23.30098724365234 40.29615783691406 20.6480770111084 C 40.29615783691406 17.99516677856445 39.77680587768555 15.4221363067627 38.75252532958984 13.00046730041504 C 37.76297760009766 10.66090774536133 36.34613800048828 8.559558868408203 34.54136657714844 6.754787445068359 C 32.73659515380859 4.950016021728516 30.63524627685547 3.533176422119141 28.29568672180176 2.543628692626953 C 25.87401580810547 1.51934814453125 23.30098724365234 0.9999961853027344 20.6480770111084 0.9999961853027344 M 20.6480770111084 -3.814697265625e-06 C 32.05169677734375 -3.814697265625e-06 41.29615783691406 9.244457244873047 41.29615783691406 20.6480770111084 C 41.29615783691406 32.05169677734375 32.05169677734375 41.29615783691406 20.6480770111084 41.29615783691406 C 9.244457244873047 41.29615783691406 -3.814697265625e-06 32.05169677734375 -3.814697265625e-06 20.6480770111084 C -3.814697265625e-06 9.244457244873047 9.244457244873047 -3.814697265625e-06 20.6480770111084 -3.814697265625e-06 Z" stroke="none" fill="#a5d5bb"/>
      </g>
      <path id="Trazado_32195" data-name="Trazado 32195" d="M43.861,17.013a10.7,10.7,0,0,0,10.8-10.8V5.7a8.359,8.359,0,0,0,1.851-1.954,8.536,8.536,0,0,1-2.159.617,4,4,0,0,0,1.645-2.057,9.431,9.431,0,0,1-2.365.925A3.672,3.672,0,0,0,50.853,2a3.863,3.863,0,0,0-3.8,3.8,2,2,0,0,0,.1.823,10.631,10.631,0,0,1-7.815-4.01,3.938,3.938,0,0,0-.514,1.954,4.085,4.085,0,0,0,1.645,3.188,3.466,3.466,0,0,1-1.748-.514h0a3.758,3.758,0,0,0,3.085,3.7,3.17,3.17,0,0,1-1.028.1,1.75,1.75,0,0,1-.72-.1,3.9,3.9,0,0,0,3.6,2.673,7.764,7.764,0,0,1-4.73,1.645,2.847,2.847,0,0,1-.925-.1,9.706,9.706,0,0,0,5.861,1.851" transform="translate(-26.798 15.423)" fill="#fff" fill-rule="evenodd"/>
    </g>
  </g>
</svg>
